<?xml version="1.0" standalone="no"?>
<!DOCTYPE svg PUBLIC "-//W3C//DTD SVG 20010904//EN"
 "http://www.w3.org/TR/2001/REC-SVG-20010904/DTD/svg10.dtd">
<svg version="1.0" xmlns="http://www.w3.org/2000/svg"
 width="128.000000pt" height="128.000000pt" viewBox="0 0 128.000000 128.000000"
 preserveAspectRatio="xMidYMid meet">
<metadata>
Created by potrace 1.14, written by Peter Selinger 2001-2017
</metadata>
<g transform="translate(0.000000,128.000000) scale(0.100000,-0.100000)"
fill="#000000" stroke="none">
<path d="M166 1260 c-58 -23 -109 -69 -139 -125 -22 -39 -22 -48 -22 -490 0
-504 -2 -486 75 -568 70 -74 83 -76 553 -76 489 0 492 0 572 82 30 31 55 69
63 92 9 30 11 155 9 480 -2 406 -3 443 -21 477 -25 52 -72 96 -131 124 -49 23
-49 23 -480 23 -401 0 -433 -1 -479 -19z m614 -152 c114 -57 176 -153 179
-278 2 -50 13 -63 59 -65 63 -3 100 -23 112 -60 15 -44 11 -274 -5 -336 -27
-102 -125 -197 -227 -218 -30 -7 -144 -11 -272 -11 -184 1 -230 4 -274 19 -71
24 -138 84 -176 156 l-31 59 0 261 c0 290 3 305 72 392 73 92 137 112 348 110
152 -2 163 -3 215 -29z"/>
<path d="M517 868 c-24 -19 -30 -60 -13 -83 13 -18 26 -20 136 -20 109 0 123
2 136 19 19 27 18 48 -5 72 -16 17 -33 20 -128 22 -75 1 -114 -2 -126 -10z"/>
<path d="M420 492 c-15 -18 -17 -29 -8 -52 5 -16 19 -32 31 -36 27 -9 366 -9
393 0 41 13 49 79 12 102 -7 5 -102 9 -211 9 -197 1 -199 1 -217 -23z"/>
</g>
</svg>
